<mxfile host="app.diagrams.net" agent="Mozilla/5.0 (Macintosh; Intel Mac OS X 10_15_7) AppleWebKit/537.36 (KHTML, like Gecko) Chrome/130.0.0.0 Safari/537.36" version="25.0.3">
  <diagram name="Page-1" id="7aEoS9DHAGaQn_O4AqDP">
    <mxGraphModel dx="977" dy="571" grid="1" gridSize="10" guides="1" tooltips="1" connect="1" arrows="1" fold="1" page="1" pageScale="1" pageWidth="850" pageHeight="1100" math="0" shadow="0">
      <root>
        <mxCell id="0" />
        <mxCell id="1" parent="0" />
        <mxCell id="46nrLrE-pRHJPLSC7djJ-2" value="UpdateBlock" style="swimlane;whiteSpace=wrap;html=1;rounded=1;fontFamily=Courier New;dropTarget=1;collapsible=0;fillColor=#dae8fc;strokeColor=#6c8ebf;" vertex="1" parent="1">
          <mxGeometry x="450" y="130" width="220" height="350" as="geometry" />
        </mxCell>
        <mxCell id="46nrLrE-pRHJPLSC7djJ-4" value="&lt;font&gt;ModifyModule [Optional]&lt;/font&gt;" style="rounded=1;whiteSpace=wrap;html=1;fontFamily=Courier New;fillColor=#e1d5e7;strokeColor=#9673a6;" vertex="1" parent="46nrLrE-pRHJPLSC7djJ-2">
          <mxGeometry x="10" y="30" width="200" height="30" as="geometry" />
        </mxCell>
        <mxCell id="46nrLrE-pRHJPLSC7djJ-5" value="SamplerBlock" style="swimlane;whiteSpace=wrap;html=1;fontFamily=Courier New;rounded=1;glass=0;swimlaneLine=1;collapsible=0;fillColor=#d5e8d4;strokeColor=#82b366;" vertex="1" parent="46nrLrE-pRHJPLSC7djJ-2">
          <mxGeometry x="10" y="70" width="200" height="270" as="geometry">
            <mxRectangle x="10" y="70" width="130" height="30" as="alternateBounds" />
          </mxGeometry>
        </mxCell>
        <mxCell id="46nrLrE-pRHJPLSC7djJ-6" value="ModifyModule [Optional]" style="rounded=1;whiteSpace=wrap;html=1;fontFamily=Courier New;fillColor=#e1d5e7;strokeColor=#9673a6;" vertex="1" parent="46nrLrE-pRHJPLSC7djJ-5">
          <mxGeometry x="10" y="30" width="180" height="30" as="geometry" />
        </mxCell>
        <mxCell id="46nrLrE-pRHJPLSC7djJ-8" value="UpdateChain" style="swimlane;whiteSpace=wrap;html=1;fontFamily=Courier New;rounded=1;collapsible=0;fillColor=#ffe6cc;strokeColor=#d79b00;" vertex="1" parent="46nrLrE-pRHJPLSC7djJ-5">
          <mxGeometry x="10" y="70" width="180" height="190" as="geometry" />
        </mxCell>
        <mxCell id="46nrLrE-pRHJPLSC7djJ-9" value="UpdateModule" style="rounded=1;whiteSpace=wrap;html=1;fontFamily=Courier New;fillColor=#e1d5e7;strokeColor=#9673a6;" vertex="1" parent="46nrLrE-pRHJPLSC7djJ-8">
          <mxGeometry x="10" y="30" width="160" height="30" as="geometry" />
        </mxCell>
        <mxCell id="46nrLrE-pRHJPLSC7djJ-10" value="UpdateModule" style="rounded=1;whiteSpace=wrap;html=1;fontFamily=Courier New;fillColor=#e1d5e7;strokeColor=#9673a6;" vertex="1" parent="46nrLrE-pRHJPLSC7djJ-8">
          <mxGeometry x="10" y="70" width="160" height="30" as="geometry" />
        </mxCell>
        <mxCell id="46nrLrE-pRHJPLSC7djJ-11" value="UpdateModule" style="rounded=1;whiteSpace=wrap;html=1;fontFamily=Courier New;fillColor=#e1d5e7;strokeColor=#9673a6;" vertex="1" parent="46nrLrE-pRHJPLSC7djJ-8">
          <mxGeometry x="10" y="150" width="160" height="30" as="geometry" />
        </mxCell>
        <mxCell id="46nrLrE-pRHJPLSC7djJ-14" value="" style="endArrow=none;dashed=1;html=1;dashPattern=1 3;strokeWidth=3;rounded=0;fontFamily=Courier New;" edge="1" parent="1">
          <mxGeometry width="50" height="50" relative="1" as="geometry">
            <mxPoint x="560" y="410" as="sourcePoint" />
            <mxPoint x="560" y="380" as="targetPoint" />
          </mxGeometry>
        </mxCell>
        <mxCell id="46nrLrE-pRHJPLSC7djJ-22" style="edgeStyle=orthogonalEdgeStyle;rounded=0;orthogonalLoop=1;jettySize=auto;html=1;exitX=0.5;exitY=1;exitDx=0;exitDy=0;entryX=0.5;entryY=0;entryDx=0;entryDy=0;" edge="1" parent="1" source="46nrLrE-pRHJPLSC7djJ-17" target="46nrLrE-pRHJPLSC7djJ-21">
          <mxGeometry relative="1" as="geometry" />
        </mxCell>
        <mxCell id="46nrLrE-pRHJPLSC7djJ-23" value="&lt;font face=&quot;Courier New&quot;&gt;Modified MT&lt;/font&gt;" style="edgeLabel;html=1;align=center;verticalAlign=middle;resizable=0;points=[];" vertex="1" connectable="0" parent="46nrLrE-pRHJPLSC7djJ-22">
          <mxGeometry x="-0.04" y="1" relative="1" as="geometry">
            <mxPoint as="offset" />
          </mxGeometry>
        </mxCell>
        <mxCell id="46nrLrE-pRHJPLSC7djJ-17" value="&lt;font face=&quot;Courier New&quot;&gt;&lt;b&gt;ModifyModule&lt;/b&gt;&lt;/font&gt;" style="rounded=1;whiteSpace=wrap;html=1;fillColor=#e1d5e7;strokeColor=#9673a6;" vertex="1" parent="1">
          <mxGeometry x="120" y="200" width="120" height="20" as="geometry" />
        </mxCell>
        <mxCell id="46nrLrE-pRHJPLSC7djJ-19" style="edgeStyle=orthogonalEdgeStyle;rounded=0;orthogonalLoop=1;jettySize=auto;html=1;exitX=0.5;exitY=1;exitDx=0;exitDy=0;entryX=0.5;entryY=0;entryDx=0;entryDy=0;" edge="1" parent="1" source="46nrLrE-pRHJPLSC7djJ-18" target="46nrLrE-pRHJPLSC7djJ-17">
          <mxGeometry relative="1" as="geometry" />
        </mxCell>
        <mxCell id="46nrLrE-pRHJPLSC7djJ-20" value="&lt;font face=&quot;Courier New&quot;&gt;MultiTensor&lt;/font&gt;" style="edgeLabel;html=1;align=center;verticalAlign=middle;resizable=0;points=[];" vertex="1" connectable="0" parent="46nrLrE-pRHJPLSC7djJ-19">
          <mxGeometry x="-0.06" y="-1" relative="1" as="geometry">
            <mxPoint as="offset" />
          </mxGeometry>
        </mxCell>
        <mxCell id="46nrLrE-pRHJPLSC7djJ-18" value="&lt;font face=&quot;Courier New&quot;&gt;&lt;b&gt;Buffer&lt;/b&gt;&lt;/font&gt;" style="rounded=1;whiteSpace=wrap;html=1;fillColor=#f8cecc;strokeColor=#b85450;" vertex="1" parent="1">
          <mxGeometry x="120" y="140" width="120" height="20" as="geometry" />
        </mxCell>
        <mxCell id="46nrLrE-pRHJPLSC7djJ-32" style="edgeStyle=orthogonalEdgeStyle;rounded=0;orthogonalLoop=1;jettySize=auto;html=1;exitX=0.5;exitY=1;exitDx=0;exitDy=0;entryX=0.5;entryY=0;entryDx=0;entryDy=0;" edge="1" parent="1" source="46nrLrE-pRHJPLSC7djJ-21" target="46nrLrE-pRHJPLSC7djJ-24">
          <mxGeometry relative="1" as="geometry" />
        </mxCell>
        <mxCell id="46nrLrE-pRHJPLSC7djJ-37" value="&lt;font face=&quot;Courier New&quot;&gt;Batch&lt;/font&gt;" style="edgeLabel;html=1;align=center;verticalAlign=middle;resizable=0;points=[];" vertex="1" connectable="0" parent="46nrLrE-pRHJPLSC7djJ-32">
          <mxGeometry x="-0.0208" y="1" relative="1" as="geometry">
            <mxPoint y="-1" as="offset" />
          </mxGeometry>
        </mxCell>
        <mxCell id="46nrLrE-pRHJPLSC7djJ-21" value="&lt;font face=&quot;Courier New&quot;&gt;&lt;b&gt;SamplerBlock&lt;/b&gt;&lt;/font&gt;" style="rounded=1;whiteSpace=wrap;html=1;fillColor=#d5e8d4;strokeColor=#82b366;" vertex="1" parent="1">
          <mxGeometry x="120" y="260" width="120" height="20" as="geometry" />
        </mxCell>
        <mxCell id="46nrLrE-pRHJPLSC7djJ-42" style="edgeStyle=orthogonalEdgeStyle;rounded=0;orthogonalLoop=1;jettySize=auto;html=1;exitX=0.5;exitY=1;exitDx=0;exitDy=0;entryX=0.5;entryY=0;entryDx=0;entryDy=0;" edge="1" parent="1" source="46nrLrE-pRHJPLSC7djJ-24" target="46nrLrE-pRHJPLSC7djJ-38">
          <mxGeometry relative="1" as="geometry" />
        </mxCell>
        <mxCell id="46nrLrE-pRHJPLSC7djJ-44" value="&lt;font face=&quot;Courier New&quot;&gt;Modified Batch&lt;/font&gt;" style="edgeLabel;html=1;align=center;verticalAlign=middle;resizable=0;points=[];" vertex="1" connectable="0" parent="46nrLrE-pRHJPLSC7djJ-42">
          <mxGeometry x="-0.0154" y="-1" relative="1" as="geometry">
            <mxPoint y="-1" as="offset" />
          </mxGeometry>
        </mxCell>
        <mxCell id="46nrLrE-pRHJPLSC7djJ-24" value="&lt;font face=&quot;Courier New&quot;&gt;&lt;b&gt;ModifyModule&lt;/b&gt;&lt;/font&gt;" style="rounded=1;whiteSpace=wrap;html=1;fillColor=#e1d5e7;strokeColor=#9673a6;" vertex="1" parent="1">
          <mxGeometry x="120" y="320" width="120" height="20" as="geometry" />
        </mxCell>
        <mxCell id="46nrLrE-pRHJPLSC7djJ-38" value="UpdateChain" style="swimlane;whiteSpace=wrap;html=1;fontFamily=Courier New;rounded=1;collapsible=0;fillColor=#ffe6cc;strokeColor=#d79b00;startSize=23;points=[[0,0,0,0,0],[0,0.25,0,0,0],[0,0.5,0,0,0],[0,0.75,0,0,0],[0,1,0,0,0],[0.25,0,0,0,0],[0.25,1,0,0,0],[0.5,0,0,0,0],[0.5,0.26,0,0,0],[0.5,1,0,0,0],[0.75,0,0,0,0],[0.75,1,0,0,0],[1,0,0,0,0],[1,0.25,0,0,0],[1,0.5,0,0,0],[1,0.75,0,0,0],[1,1,0,0,0]];" vertex="1" parent="1">
          <mxGeometry x="40" y="380" width="280" height="90" as="geometry" />
        </mxCell>
        <mxCell id="46nrLrE-pRHJPLSC7djJ-39" value="Update" style="rounded=1;whiteSpace=wrap;html=1;fontFamily=Courier New;fillColor=#e1d5e7;strokeColor=#9673a6;" vertex="1" parent="46nrLrE-pRHJPLSC7djJ-38">
          <mxGeometry x="10" y="60" width="70" height="20" as="geometry" />
        </mxCell>
        <mxCell id="46nrLrE-pRHJPLSC7djJ-47" style="edgeStyle=orthogonalEdgeStyle;rounded=0;orthogonalLoop=1;jettySize=auto;html=1;exitX=0.5;exitY=0.26;exitDx=0;exitDy=0;exitPerimeter=0;entryX=0.5;entryY=0;entryDx=0;entryDy=0;" edge="1" parent="46nrLrE-pRHJPLSC7djJ-38" source="46nrLrE-pRHJPLSC7djJ-38" target="46nrLrE-pRHJPLSC7djJ-39">
          <mxGeometry relative="1" as="geometry">
            <Array as="points">
              <mxPoint x="140" y="40" />
              <mxPoint x="45" y="40" />
            </Array>
          </mxGeometry>
        </mxCell>
        <mxCell id="46nrLrE-pRHJPLSC7djJ-48" value="Update" style="rounded=1;whiteSpace=wrap;html=1;fontFamily=Courier New;fillColor=#e1d5e7;strokeColor=#9673a6;" vertex="1" parent="46nrLrE-pRHJPLSC7djJ-38">
          <mxGeometry x="105" y="60" width="70" height="20" as="geometry" />
        </mxCell>
        <mxCell id="46nrLrE-pRHJPLSC7djJ-49" style="edgeStyle=orthogonalEdgeStyle;rounded=0;orthogonalLoop=1;jettySize=auto;html=1;exitX=0.5;exitY=0.26;exitDx=0;exitDy=0;exitPerimeter=0;entryX=0.5;entryY=0;entryDx=0;entryDy=0;" edge="1" parent="46nrLrE-pRHJPLSC7djJ-38" source="46nrLrE-pRHJPLSC7djJ-38" target="46nrLrE-pRHJPLSC7djJ-48">
          <mxGeometry relative="1" as="geometry" />
        </mxCell>
        <mxCell id="46nrLrE-pRHJPLSC7djJ-50" value="Update" style="rounded=1;whiteSpace=wrap;html=1;fontFamily=Courier New;fillColor=#e1d5e7;strokeColor=#9673a6;" vertex="1" parent="46nrLrE-pRHJPLSC7djJ-38">
          <mxGeometry x="200" y="60" width="70" height="20" as="geometry" />
        </mxCell>
        <mxCell id="46nrLrE-pRHJPLSC7djJ-51" style="edgeStyle=orthogonalEdgeStyle;rounded=0;orthogonalLoop=1;jettySize=auto;html=1;exitX=0.5;exitY=0.26;exitDx=0;exitDy=0;exitPerimeter=0;entryX=0.5;entryY=0;entryDx=0;entryDy=0;" edge="1" parent="46nrLrE-pRHJPLSC7djJ-38" source="46nrLrE-pRHJPLSC7djJ-38" target="46nrLrE-pRHJPLSC7djJ-50">
          <mxGeometry relative="1" as="geometry">
            <Array as="points">
              <mxPoint x="140" y="40" />
              <mxPoint x="235" y="40" />
            </Array>
          </mxGeometry>
        </mxCell>
      </root>
    </mxGraphModel>
  </diagram>
</mxfile>
